<svg width="154" height="37" viewBox="0 0 154 37" fill="none" xmlns="http://www.w3.org/2000/svg">
<path d="M6.9541 35.769C6.61719 35.769 6.2876 35.7617 5.96533 35.7471C5.65771 35.7324 5.34277 35.7251 5.02051 35.7251C4.40527 35.7251 3.82666 35.7324 3.28467 35.7471C2.74268 35.7617 2.27393 35.7837 1.87842 35.813C1.39502 35.8423 0.962891 35.8716 0.582031 35.9009C0.787109 33.7036 0.948242 31.5649 1.06543 29.4849C1.18262 27.4048 1.27051 25.5444 1.3291 23.9038C1.3877 21.9995 1.42432 20.1904 1.43896 18.4766C1.43896 16.8066 1.40967 15.1001 1.35107 13.3569C1.32178 12.6099 1.28516 11.8262 1.24121 11.0059C1.21191 10.1709 1.16797 9.32861 1.10938 8.479C1.06543 7.61475 0.999512 6.75049 0.911621 5.88623C0.838379 5.02197 0.757812 4.17969 0.669922 3.35938C1.28516 3.40332 1.85645 3.43262 2.38379 3.44727C2.91113 3.44727 3.40186 3.44727 3.85596 3.44727C4.32471 3.44727 4.74951 3.44727 5.13037 3.44727C5.51123 3.43262 5.8335 3.41797 6.09717 3.40332C6.40479 3.38867 6.67578 3.37402 6.91016 3.35938C6.77832 5.19043 6.67578 6.98486 6.60254 8.74268C6.5293 10.5005 6.47803 12.0825 6.44873 13.4888C6.40479 15.1294 6.38281 16.6895 6.38281 18.1689V19.5093C7.29102 18.396 8.11865 17.1948 8.86572 15.9058C9.62744 14.6167 10.2793 13.2837 10.8213 11.9067C11.3633 10.5151 11.7808 9.10889 12.0737 7.68799C12.3813 6.26709 12.5352 4.86816 12.5352 3.49121V2.78809L20.0059 3.44727C18.7168 5.71777 17.5962 7.72461 16.644 9.46777C15.6919 11.1963 14.8716 12.6904 14.1831 13.9502C13.5093 15.21 12.96 16.2573 12.5352 17.0923C12.1104 17.9272 11.7808 18.5864 11.5464 19.0698C12.5864 19.3481 13.4214 19.7363 14.0513 20.2344C14.6958 20.7178 15.2012 21.2817 15.5674 21.9263C15.9336 22.5708 16.1899 23.2812 16.3364 24.0576C16.4976 24.8193 16.6221 25.6104 16.71 26.4307C16.7979 27.251 16.8784 28.0786 16.9517 28.9136C17.0396 29.7485 17.1934 30.5615 17.4131 31.3525C17.5303 31.8066 17.6987 32.2754 17.9185 32.7588C18.1089 33.1836 18.3579 33.6597 18.6655 34.187C18.9731 34.6997 19.3613 35.2271 19.8301 35.769L13.6338 35.9009C13.2969 35.564 13.0186 35.1172 12.7988 34.5605C12.5938 34.0039 12.4326 33.4546 12.3154 32.9126C12.1689 32.2827 12.0664 31.6162 12.0078 30.9131C11.9346 30.1074 11.8833 29.3237 11.854 28.562C11.8394 27.7856 11.7954 27.0532 11.7222 26.3647C11.6636 25.6763 11.561 25.0464 11.4146 24.4751C11.2681 23.8892 11.0337 23.3911 10.7114 22.981C10.3892 22.5562 9.95703 22.2266 9.41504 21.9922C8.8877 21.7578 8.20654 21.6406 7.37158 21.6406C7.21045 21.6406 7.04932 21.6479 6.88818 21.6626C6.72705 21.6772 6.55859 21.6992 6.38281 21.7285C6.42676 23.3105 6.48535 25.3101 6.55859 27.7271C6.64648 30.1294 6.77832 32.8101 6.9541 35.769ZM27.6084 4.17236C27.6084 4.64111 27.5205 5.08789 27.3447 5.5127C27.1689 5.92285 26.9272 6.28174 26.6196 6.58936C26.312 6.89697 25.9458 7.146 25.521 7.33643C25.1108 7.51221 24.6714 7.6001 24.2026 7.6001C23.7339 7.6001 23.2871 7.51221 22.8623 7.33643C22.4521 7.146 22.0933 6.89697 21.7856 6.58936C21.478 6.28174 21.229 5.92285 21.0386 5.5127C20.8628 5.08789 20.7749 4.64111 20.7749 4.17236C20.7749 3.70361 20.8628 3.26416 21.0386 2.854C21.229 2.4292 21.478 2.06299 21.7856 1.75537C22.0933 1.44775 22.4521 1.20605 22.8623 1.03027C23.2871 0.839844 23.7339 0.744629 24.2026 0.744629C24.6714 0.744629 25.1108 0.839844 25.521 1.03027C25.9458 1.20605 26.312 1.44775 26.6196 1.75537C26.9272 2.06299 27.1689 2.4292 27.3447 2.854C27.5205 3.26416 27.6084 3.70361 27.6084 4.17236ZM27.6084 10.8301C27.4912 11.9873 27.3887 13.2397 27.3008 14.5874C27.2275 15.9204 27.1616 17.29 27.103 18.6963C27.0591 20.1025 27.0225 21.5161 26.9932 22.937C26.9639 24.3579 26.9419 25.7129 26.9272 27.002C26.9126 28.291 26.8979 29.4995 26.8833 30.6274C26.8833 31.7407 26.8833 32.7002 26.8833 33.5059V35.9888L21.8955 36.1646C21.9248 35.1538 21.9395 34.1724 21.9395 33.2202C21.9395 32.2681 21.9395 31.3159 21.9395 30.3638C21.9395 28.7085 21.9248 27.0972 21.8955 25.5298C21.8662 23.9478 21.8149 22.3657 21.7417 20.7837C21.6831 19.2017 21.6025 17.5977 21.5 15.9717C21.3975 14.3457 21.2729 12.6611 21.1265 10.918L27.6084 10.8301ZM36.0459 35.9009L30.1792 36.3403C30.4136 33.7183 30.582 31.1914 30.6846 28.7598C30.8018 26.3135 30.8604 23.8672 30.8604 21.4209C30.8604 19.6924 30.8311 17.9639 30.7725 16.2354C30.7285 14.4922 30.6406 12.7051 30.5088 10.874L35.4526 10.6104C35.4233 10.9326 35.4014 11.2476 35.3867 11.5552C35.3721 11.8628 35.3647 12.1631 35.3647 12.4561C35.8774 11.665 36.4341 11.0498 37.0347 10.6104C37.6499 10.1562 38.2212 9.82666 38.7485 9.62158C39.3491 9.37256 39.957 9.21875 40.5723 9.16016C41.6416 9.16016 42.5571 9.32861 43.3188 9.66553C44.0806 9.98779 44.7031 10.4126 45.1865 10.9399C45.6699 11.4526 46.0215 12.0312 46.2412 12.6758C46.4609 13.3057 46.5708 13.9209 46.5708 14.5215C46.5708 15.1367 46.5049 15.7593 46.373 16.3892C46.2412 17.019 46.0142 17.5903 45.6919 18.103C45.3843 18.6011 44.9668 19.0112 44.4395 19.3335C43.9268 19.6411 43.2896 19.7949 42.5278 19.7949C41.7661 19.7949 41.1655 19.6558 40.7261 19.3774C40.2866 19.0991 39.9497 18.7695 39.7153 18.3887C39.4956 17.9932 39.3491 17.5903 39.2759 17.1802C39.2173 16.7554 39.188 16.3965 39.188 16.1035C39.188 15.8984 39.2246 15.6714 39.2979 15.4224C39.3711 15.1587 39.481 14.895 39.6274 14.6313C39.7739 14.3677 39.957 14.1113 40.1768 13.8623C40.3965 13.5986 40.6528 13.3569 40.9458 13.1372C40.8579 13.1079 40.7627 13.0859 40.6602 13.0713C40.5723 13.0566 40.4844 13.0493 40.3965 13.0493C39.6641 13.0493 39.0122 13.2837 38.4409 13.7524C37.8696 14.2065 37.3716 14.8438 36.9468 15.6641C36.5366 16.4844 36.1924 17.4512 35.9141 18.5645C35.6504 19.6777 35.4526 20.8936 35.3208 22.2119C35.394 24.4824 35.4966 26.731 35.6284 28.9575C35.7603 31.1841 35.8994 33.4985 36.0459 35.9009ZM54.459 4.17236C54.459 4.64111 54.3711 5.08789 54.1953 5.5127C54.0195 5.92285 53.7778 6.28174 53.4702 6.58936C53.1626 6.89697 52.7964 7.146 52.3716 7.33643C51.9614 7.51221 51.522 7.6001 51.0532 7.6001C50.5845 7.6001 50.1377 7.51221 49.7129 7.33643C49.3027 7.146 48.9438 6.89697 48.6362 6.58936C48.3286 6.28174 48.0796 5.92285 47.8892 5.5127C47.7134 5.08789 47.6255 4.64111 47.6255 4.17236C47.6255 3.70361 47.7134 3.26416 47.8892 2.854C48.0796 2.4292 48.3286 2.06299 48.6362 1.75537C48.9438 1.44775 49.3027 1.20605 49.7129 1.03027C50.1377 0.839844 50.5845 0.744629 51.0532 0.744629C51.522 0.744629 51.9614 0.839844 52.3716 1.03027C52.7964 1.20605 53.1626 1.44775 53.4702 1.75537C53.7778 2.06299 54.0195 2.4292 54.1953 2.854C54.3711 3.26416 54.459 3.70361 54.459 4.17236ZM54.459 10.8301C54.3418 11.9873 54.2393 13.2397 54.1514 14.5874C54.0781 15.9204 54.0122 17.29 53.9536 18.6963C53.9097 20.1025 53.873 21.5161 53.8438 22.937C53.8145 24.3579 53.7925 25.7129 53.7778 27.002C53.7632 28.291 53.7485 29.4995 53.7339 30.6274C53.7339 31.7407 53.7339 32.7002 53.7339 33.5059V35.9888L48.7461 36.1646C48.7754 35.1538 48.79 34.1724 48.79 33.2202C48.79 32.2681 48.79 31.3159 48.79 30.3638C48.79 28.7085 48.7754 27.0972 48.7461 25.5298C48.7168 23.9478 48.6655 22.3657 48.5923 20.7837C48.5337 19.2017 48.4531 17.5977 48.3506 15.9717C48.248 14.3457 48.1235 12.6611 47.9771 10.918L54.459 10.8301ZM62.9844 1.20605C62.8965 2.99316 62.8159 4.64844 62.7427 6.17188C62.6694 7.69531 62.6035 9.13086 62.5449 10.4785C62.501 11.8262 62.4644 13.1079 62.4351 14.3237C62.4058 15.5396 62.3765 16.7407 62.3472 17.9272C62.3325 19.1138 62.3179 20.3076 62.3032 21.5088C62.3032 22.71 62.3032 23.9697 62.3032 25.2881C62.3032 26.7529 62.3032 28.3203 62.3032 29.9902C62.3032 31.6602 62.3179 33.5132 62.3472 35.5493L57.3594 35.4395C57.4473 33.2275 57.5059 31.0522 57.5352 28.9136C57.5645 26.7603 57.5791 24.5557 57.5791 22.2998C57.5791 20.791 57.5718 19.2456 57.5571 17.6636C57.5425 16.0669 57.5205 14.4043 57.4912 12.6758C57.4619 10.9326 57.4253 9.10156 57.3813 7.18262C57.3521 5.26367 57.3154 3.22754 57.2715 1.07422L62.9844 1.20605ZM71.4219 1.20605C71.334 2.99316 71.2534 4.64844 71.1802 6.17188C71.1069 7.69531 71.041 9.13086 70.9824 10.4785C70.9385 11.8262 70.9019 13.1079 70.8726 14.3237C70.8433 15.5396 70.814 16.7407 70.7847 17.9272C70.77 19.1138 70.7554 20.3076 70.7407 21.5088C70.7407 22.71 70.7407 23.9697 70.7407 25.2881C70.7407 26.7529 70.7407 28.3203 70.7407 29.9902C70.7407 31.6602 70.7554 33.5132 70.7847 35.5493L65.7969 35.4395C65.8848 33.2275 65.9434 31.0522 65.9727 28.9136C66.002 26.7603 66.0166 24.5557 66.0166 22.2998C66.0166 20.791 66.0093 19.2456 65.9946 17.6636C65.98 16.0669 65.958 14.4043 65.9287 12.6758C65.8994 10.9326 65.8628 9.10156 65.8188 7.18262C65.7896 5.26367 65.7529 3.22754 65.709 1.07422L71.4219 1.20605ZM97.5474 11.2476C97.4888 12.5073 97.4448 13.7671 97.4155 15.0269C97.4009 16.272 97.3862 17.3999 97.3716 18.4106C97.3569 19.5972 97.3496 20.7324 97.3496 21.8164C97.3203 22.8857 97.269 23.9917 97.1958 25.1343C97.1226 26.2622 96.9907 27.3608 96.8003 28.4302C96.6245 29.4995 96.3755 30.5103 96.0532 31.4624C95.7456 32.4146 95.3428 33.2495 94.8447 33.9673C94.3467 34.6851 93.7388 35.249 93.021 35.6592C92.3179 36.084 91.4829 36.2964 90.5161 36.2964C89.7251 36.2378 88.9707 36.0107 88.2529 35.6152C87.9453 35.4395 87.6304 35.2271 87.3081 34.978C86.9858 34.7144 86.6782 34.3921 86.3853 34.0112C86.0923 33.6304 85.814 33.1836 85.5503 32.6709C85.2866 32.1582 85.0669 31.5576 84.8911 30.8691C84.4077 32.1289 83.8438 33.103 83.1992 33.7915C82.5547 34.48 81.9468 34.9854 81.3755 35.3076C80.687 35.6885 79.9985 35.9155 79.3101 35.9888C78.519 35.9888 77.8452 35.813 77.2886 35.4614C76.7319 35.1099 76.2632 34.6265 75.8823 34.0112C75.5015 33.3813 75.2012 32.6489 74.9814 31.814C74.7617 30.979 74.5933 30.0781 74.4761 29.1113C74.3589 28.1445 74.2783 27.1338 74.2344 26.0791C74.2051 25.0244 74.1904 23.9771 74.1904 22.937C74.1904 22.5854 74.1904 22.3364 74.1904 22.1899C74.2051 22.0288 74.2124 21.875 74.2124 21.7285C74.2271 21.5674 74.2417 21.355 74.2563 21.0913C74.271 20.813 74.2783 20.3882 74.2783 19.8169C74.293 19.2456 74.3003 18.4692 74.3003 17.4878C74.3149 16.5063 74.3223 15.2173 74.3223 13.6206C74.3223 13.1226 74.3223 12.6392 74.3223 12.1704C74.3223 11.687 74.3076 11.2402 74.2783 10.8301L80.5186 11.0059C80.0205 13.6133 79.6836 16.1694 79.5078 18.6743C79.3467 21.1792 79.2661 23.6841 79.2661 26.189C79.2661 27.8149 79.376 28.9941 79.5957 29.7266C79.8154 30.459 80.2476 30.8252 80.8921 30.8252C81.1851 30.8252 81.4487 30.6641 81.6831 30.3418C81.9321 30.0049 82.1445 29.5654 82.3203 29.0234C82.5107 28.4668 82.6719 27.8369 82.8037 27.1338C82.9502 26.4307 83.0674 25.7129 83.1553 24.9805C83.2432 24.2334 83.3091 23.501 83.353 22.7832C83.397 22.0654 83.4189 21.4136 83.4189 20.8276C83.4189 20.2124 83.4116 19.6191 83.397 19.0479C83.397 18.4766 83.375 17.8833 83.3311 17.2681C83.3018 16.6382 83.2578 15.979 83.1992 15.2905C83.1553 14.5874 83.0894 13.8037 83.0015 12.9395L88.6265 13.2251C88.3335 14.9536 88.0845 16.6309 87.8794 18.2568C87.689 19.8682 87.5938 21.4722 87.5938 23.0688C87.5938 23.9771 87.6304 24.9072 87.7036 25.8594C87.7915 26.7969 87.9233 27.6538 88.0991 28.4302C88.2896 29.1919 88.5312 29.8218 88.8242 30.3198C89.1172 30.8032 89.4688 31.0449 89.8789 31.0449C90.3916 31.0449 90.8091 30.7373 91.1313 30.1221C91.4683 29.4922 91.7246 28.6792 91.9004 27.6831C92.0908 26.6724 92.2227 25.5444 92.2959 24.2993C92.3691 23.0396 92.4058 21.7798 92.4058 20.52C92.4058 20.3882 92.3984 20.0732 92.3838 19.5752C92.3691 19.0771 92.3325 18.4253 92.2739 17.6196C92.2153 16.814 92.1274 15.8618 92.0103 14.7632C91.8931 13.6646 91.7246 12.4487 91.5049 11.1157L97.5474 11.2476ZM116.07 30.2759C116.07 31.1401 115.873 31.9531 115.477 32.7148C115.082 33.4766 114.547 34.1357 113.873 34.6924C113.199 35.249 112.408 35.6885 111.5 36.0107C110.592 36.333 109.625 36.4941 108.6 36.4941C107.911 36.4941 107.215 36.3989 106.512 36.2085C105.809 36.0181 105.135 35.7031 104.491 35.2637C103.846 34.8242 103.238 34.2456 102.667 33.5278C102.096 32.8101 101.598 31.9312 101.173 30.8911C100.763 29.8511 100.433 28.6353 100.184 27.2437C99.9497 25.8374 99.8325 24.2261 99.8325 22.4097C99.8325 20.6958 99.9497 19.1797 100.184 17.8613C100.433 16.543 100.763 15.3931 101.173 14.4116C101.598 13.4302 102.088 12.6099 102.645 11.9507C103.202 11.2769 103.795 10.7349 104.425 10.3247C105.069 9.8999 105.729 9.59961 106.402 9.42383C107.091 9.24805 107.765 9.16016 108.424 9.16016C109.405 9.16016 110.335 9.32129 111.214 9.64355C112.093 9.95117 112.862 10.4126 113.521 11.0278C114.181 11.6431 114.701 12.4048 115.082 13.313C115.477 14.2065 115.675 15.2393 115.675 16.4111C115.675 17.4658 115.455 18.5352 115.016 19.6191C114.591 20.6885 113.954 21.7065 113.104 22.6733C112.254 23.6255 111.2 24.4971 109.94 25.2881C108.695 26.0645 107.259 26.6797 105.633 27.1338C105.721 28.042 105.846 28.8696 106.007 29.6167C106.183 30.3638 106.395 31.001 106.644 31.5283C106.908 32.0557 107.208 32.4658 107.545 32.7588C107.896 33.0518 108.299 33.1982 108.753 33.1982C109.046 33.1836 109.325 33.1323 109.588 33.0444C109.823 32.9712 110.057 32.854 110.292 32.6929C110.541 32.5317 110.746 32.2974 110.907 31.9897C110.526 31.814 110.233 31.5869 110.028 31.3086C109.823 31.0303 109.669 30.7666 109.566 30.5176C109.449 30.2246 109.383 29.917 109.369 29.5947C109.369 28.8916 109.508 28.3203 109.786 27.8809C110.064 27.4414 110.394 27.0972 110.775 26.8481C111.156 26.5991 111.544 26.4307 111.939 26.3428C112.335 26.2402 112.65 26.189 112.884 26.189C113.133 26.189 113.434 26.2402 113.785 26.3428C114.151 26.4453 114.503 26.6431 114.84 26.936C115.177 27.229 115.462 27.6465 115.697 28.1885C115.946 28.7158 116.07 29.4116 116.07 30.2759ZM110.643 16.4551C110.643 15.9277 110.592 15.4297 110.489 14.9609C110.401 14.4775 110.262 14.0601 110.072 13.7085C109.896 13.3569 109.669 13.0786 109.391 12.8735C109.127 12.6538 108.819 12.5439 108.468 12.5439C107.867 12.5439 107.376 12.8223 106.996 13.3789C106.615 13.9209 106.307 14.646 106.073 15.5542C105.838 16.4624 105.677 17.5098 105.589 18.6963C105.501 19.8828 105.458 21.1206 105.458 22.4097V24.0137C106.205 23.6182 106.893 23.1494 107.523 22.6074C108.167 22.0654 108.717 21.4722 109.171 20.8276C109.64 20.1685 109.999 19.4727 110.248 18.7402C110.511 18.0078 110.643 17.2461 110.643 16.4551ZM124.596 1.93115C124.42 3.8501 124.266 5.75439 124.134 7.64404C124.002 9.51904 123.885 11.4087 123.783 13.313C124.281 12.4194 124.815 11.731 125.387 11.2476C125.958 10.7495 126.493 10.3833 126.991 10.1489C127.577 9.88525 128.148 9.72412 128.705 9.66553C129.759 9.66553 130.697 9.88525 131.517 10.3247C132.337 10.7642 133.026 11.5186 133.583 12.5879C134.154 13.6426 134.586 15.0562 134.879 16.8286C135.172 18.5864 135.318 20.791 135.318 23.4424C135.318 25.8887 135.084 27.9468 134.615 29.6167C134.161 31.272 133.568 32.6123 132.835 33.6377C132.118 34.6484 131.312 35.3735 130.418 35.813C129.54 36.2671 128.668 36.4941 127.804 36.4941C127.716 36.4941 127.518 36.4722 127.21 36.4282C126.917 36.3989 126.559 36.2891 126.134 36.0986C125.709 35.9229 125.255 35.6519 124.771 35.2856C124.288 34.9194 123.827 34.4067 123.387 33.7476V36.1646L118.443 36.0767C118.575 33.938 118.663 31.8066 118.707 29.6826C118.766 27.5586 118.795 25.4346 118.795 23.3105C118.795 19.7363 118.736 16.1914 118.619 12.6758C118.502 9.14551 118.363 5.59326 118.202 2.01904L124.596 1.93115ZM126.178 32.4292C126.251 32.4585 126.324 32.4731 126.397 32.4731C126.485 32.4731 126.573 32.4731 126.661 32.4731C127.057 32.4731 127.467 32.3413 127.892 32.0776C128.331 31.7993 128.727 31.3159 129.078 30.6274C129.43 29.939 129.723 29.0088 129.957 27.8369C130.191 26.6504 130.309 25.1416 130.309 23.3105C130.309 21.6699 130.228 20.3076 130.067 19.2236C129.92 18.125 129.715 17.2461 129.452 16.5869C129.188 15.9277 128.88 15.4663 128.529 15.2026C128.177 14.9243 127.811 14.7852 127.43 14.7852C127.035 14.7852 126.668 14.895 126.332 15.1147C126.009 15.3198 125.716 15.5981 125.453 15.9497C125.189 16.2866 124.947 16.6748 124.728 17.1143C124.522 17.5537 124.339 17.9932 124.178 18.4326C124.017 18.8574 123.878 19.2749 123.761 19.6851C123.658 20.0806 123.578 20.4175 123.519 20.6958C123.431 23.5815 123.387 26.4453 123.387 29.2871C123.724 29.9902 124.061 30.5469 124.398 30.957C124.735 31.3672 125.035 31.6821 125.299 31.9019C125.606 32.1655 125.899 32.3413 126.178 32.4292ZM153.116 15.2026C153.116 15.8765 152.992 16.4478 152.743 16.9165C152.494 17.3853 152.193 17.7661 151.842 18.0591C151.49 18.3521 151.124 18.5645 150.743 18.6963C150.362 18.8281 150.04 18.894 149.776 18.894C149.513 18.894 149.198 18.8501 148.832 18.7622C148.465 18.6597 148.114 18.4839 147.777 18.2349C147.455 17.9858 147.176 17.6562 146.942 17.2461C146.708 16.8213 146.59 16.2866 146.59 15.6421C146.605 15.2905 146.671 14.9463 146.788 14.6094C146.891 14.3164 147.044 14.0161 147.25 13.7085C147.469 13.3862 147.777 13.1006 148.172 12.8516C147.909 12.4707 147.645 12.1777 147.381 11.9727C147.118 11.7676 146.883 11.6138 146.678 11.5112C146.429 11.394 146.202 11.3208 145.997 11.2915C145.543 11.2915 145.133 11.3867 144.767 11.5771C144.4 11.7529 144.085 11.9946 143.822 12.3022C143.573 12.5952 143.375 12.9395 143.229 13.335C143.097 13.7305 143.031 14.1406 143.031 14.5654C143.031 15.1074 143.067 15.5981 143.141 16.0376C143.214 16.4771 143.382 16.9238 143.646 17.3779C143.91 17.832 144.305 18.3228 144.833 18.8501C145.36 19.3774 146.078 19.9927 146.986 20.6958C147.894 21.3989 148.685 22.0874 149.359 22.7612C150.033 23.4204 150.589 24.0723 151.029 24.7168C151.468 25.3613 151.798 26.0132 152.018 26.6724C152.237 27.3169 152.347 27.9907 152.347 28.6938C152.347 29.1626 152.296 29.6753 152.193 30.2319C152.105 30.7739 151.944 31.3306 151.71 31.9019C151.49 32.4585 151.19 33.0005 150.809 33.5278C150.443 34.0405 149.981 34.502 149.425 34.9121C148.883 35.3223 148.238 35.6445 147.491 35.8789C146.759 36.1279 145.917 36.2524 144.964 36.2524C143.529 36.2524 142.306 36.04 141.295 35.6152C140.284 35.1904 139.449 34.6777 138.79 34.0771C138.146 33.4619 137.669 32.8174 137.362 32.1436C137.069 31.4697 136.922 30.8765 136.922 30.3638C136.922 29.8218 136.988 29.3164 137.12 28.8477C137.252 28.3789 137.457 27.9688 137.735 27.6172C138.028 27.2656 138.395 26.9946 138.834 26.8042C139.288 26.5991 139.83 26.4966 140.46 26.4966C140.987 26.4966 141.463 26.5771 141.888 26.7383C142.328 26.8994 142.701 27.1411 143.009 27.4634C143.331 27.771 143.58 28.1519 143.756 28.606C143.932 29.0601 144.02 29.5728 144.02 30.144C144.005 30.3931 143.954 30.6494 143.866 30.9131C143.792 31.1328 143.668 31.3745 143.492 31.6382C143.316 31.9019 143.075 32.1509 142.767 32.3853C142.972 32.5464 143.17 32.6709 143.36 32.7588C143.565 32.832 143.749 32.8833 143.91 32.9126C144.085 32.9565 144.261 32.9785 144.437 32.9785C144.627 32.9785 144.847 32.9272 145.096 32.8247C145.36 32.7075 145.609 32.5317 145.843 32.2974C146.078 32.063 146.275 31.7773 146.437 31.4404C146.598 31.1035 146.678 30.7007 146.678 30.2319C146.678 29.7632 146.634 29.3384 146.546 28.9575C146.473 28.562 146.305 28.1592 146.041 27.749C145.792 27.3242 145.426 26.8628 144.942 26.3647C144.459 25.8667 143.822 25.2661 143.031 24.563C142.24 23.8599 141.537 23.1787 140.921 22.5195C140.306 21.8457 139.786 21.1499 139.361 20.4321C138.951 19.7144 138.636 18.96 138.417 18.1689C138.197 17.3779 138.087 16.5063 138.087 15.5542C138.087 14.6167 138.27 13.7085 138.636 12.8296C139.017 11.9507 139.552 11.1743 140.24 10.5005C140.929 9.81201 141.764 9.27002 142.745 8.87451C143.727 8.46436 144.825 8.25928 146.041 8.25928C147.271 8.25928 148.333 8.44971 149.227 8.83057C150.121 9.21143 150.853 9.72412 151.424 10.3687C151.996 10.9985 152.42 11.731 152.699 12.5659C152.977 13.4009 153.116 14.2798 153.116 15.2026Z" fill="black"/>
</svg>
